<?xml version="1.0" encoding="UTF-8" standalone="no"?>
<!-- Created with Inkscape (http://www.inkscape.org/) -->

<svg
   xmlns:dc="http://purl.org/dc/elements/1.1/"
   xmlns:cc="http://creativecommons.org/ns#"
   xmlns:rdf="http://www.w3.org/1999/02/22-rdf-syntax-ns#"
   xmlns:svg="http://www.w3.org/2000/svg"
   xmlns="http://www.w3.org/2000/svg"
   xmlns:xlink="http://www.w3.org/1999/xlink"
   xmlns:sodipodi="http://sodipodi.sourceforge.net/DTD/sodipodi-0.dtd"
   xmlns:inkscape="http://www.inkscape.org/namespaces/inkscape"
   id="svg3020"
   version="1.1"
   inkscape:version="0.48.4 r9939"
   width="800"
   height="640"
   sodipodi:docname="goose2.jpg.svg"
   inkscape:export-filename="/home/kocka/Pictures/barheaded/goose2.png"
   inkscape:export-xdpi="32.400002"
   inkscape:export-ydpi="32.400002">
  <metadata
     id="metadata3026">
    <rdf:RDF>
      <cc:Work
         rdf:about="">
        <dc:format>image/svg+xml</dc:format>
        <dc:type
           rdf:resource="http://purl.org/dc/dcmitype/StillImage" />
        <dc:title />
      </cc:Work>
    </rdf:RDF>
  </metadata>
  <defs
     id="defs3024">
    <linearGradient
       inkscape:collect="always"
       id="linearGradient3050">
      <stop
         style="stop-color:#b3b3b3;stop-opacity:1;"
         offset="0"
         id="stop3052" />
      <stop
         style="stop-color:#4d4d4d;stop-opacity:1"
         offset="1"
         id="stop3054" />
    </linearGradient>
    <linearGradient
       inkscape:collect="always"
       id="linearGradient3039">
      <stop
         offset="0"
         id="stop3041"
         style="stop-color:#55332a;stop-opacity:1" />
      <stop
         offset="1"
         id="stop3043"
         style="stop-color:#ff7f2a;stop-opacity:1" />
    </linearGradient>
    <linearGradient
       inkscape:collect="always"
       id="linearGradient3158">
      <stop
         style="stop-color:#1a1a1a;stop-opacity:1;"
         offset="0"
         id="stop3160" />
      <stop
         offset="1"
         id="stop3162"
         style="stop-color:#aaaaaa;stop-opacity:1" />
    </linearGradient>
    <linearGradient
       id="linearGradient3150">
      <stop
         style="stop-color:#4d4d4d;stop-opacity:1"
         id="stop3152"
         offset="0" />
      <stop
         style="stop-color:#ececec;stop-opacity:1"
         id="stop3154"
         offset="1" />
    </linearGradient>
    <linearGradient
       id="linearGradient3117">
      <stop
         style="stop-color:#1a1a1a;stop-opacity:1;"
         offset="0"
         id="stop3119" />
      <stop
         offset="1"
         id="stop3121"
         style="stop-color:#4a4a4a;stop-opacity:1" />
    </linearGradient>
    <linearGradient
       inkscape:collect="always"
       id="linearGradient3073">
      <stop
         style="stop-color:#cccccc;stop-opacity:1;"
         offset="0"
         id="stop3075" />
      <stop
         style="stop-color:#cccccc;stop-opacity:0;"
         offset="1"
         id="stop3077" />
    </linearGradient>
    <linearGradient
       inkscape:collect="always"
       id="linearGradient3063">
      <stop
         offset="0"
         id="stop3065"
         style="stop-color:#4d4d4d;stop-opacity:1" />
      <stop
         offset="1"
         id="stop3067"
         style="stop-color:#adadad;stop-opacity:1" />
    </linearGradient>
    <linearGradient
       inkscape:collect="always"
       xlink:href="#linearGradient3073"
       id="linearGradient3079"
       x1="412.66669"
       y1="331"
       x2="380.66666"
       y2="359"
       gradientUnits="userSpaceOnUse" />
    <linearGradient
       inkscape:collect="always"
       xlink:href="#linearGradient3063"
       id="linearGradient3109"
       gradientUnits="userSpaceOnUse"
       x1="415.33334"
       y1="293.66666"
       x2="399"
       y2="332.33334" />
    <linearGradient
       inkscape:collect="always"
       xlink:href="#linearGradient3117"
       id="linearGradient3123"
       x1="268.66666"
       y1="309.33334"
       x2="834"
       y2="383.33334"
       gradientUnits="userSpaceOnUse" />
    <linearGradient
       inkscape:collect="always"
       xlink:href="#linearGradient3150"
       id="linearGradient3148"
       x1="461.33334"
       y1="303.33334"
       x2="149.33333"
       y2="584.66669"
       gradientUnits="userSpaceOnUse" />
    <linearGradient
       inkscape:collect="always"
       xlink:href="#linearGradient3158"
       id="linearGradient3164"
       x1="509.58829"
       y1="311.43106"
       x2="315.84103"
       y2="261.46216"
       gradientUnits="userSpaceOnUse" />
    <linearGradient
       inkscape:collect="always"
       xlink:href="#linearGradient3039"
       id="linearGradient3045"
       x1="589.33331"
       y1="316.66666"
       x2="588.33337"
       y2="309.66666"
       gradientUnits="userSpaceOnUse" />
    <linearGradient
       inkscape:collect="always"
       xlink:href="#linearGradient3150"
       id="linearGradient3053"
       x1="552.3905"
       y1="332.01385"
       x2="556.08087"
       y2="278.02536"
       gradientUnits="userSpaceOnUse" />
    <linearGradient
       inkscape:collect="always"
       xlink:href="#linearGradient3050"
       id="linearGradient3056"
       x1="164.94341"
       y1="328.15387"
       x2="372.2272"
       y2="281.39536"
       gradientUnits="userSpaceOnUse" />
  </defs>
  <sodipodi:namedview
     pagecolor="#ffffff"
     bordercolor="#666666"
     borderopacity="1"
     objecttolerance="10"
     gridtolerance="10"
     guidetolerance="10"
     inkscape:pageopacity="0"
     inkscape:pageshadow="2"
     inkscape:window-width="1289"
     inkscape:window-height="749"
     id="namedview3022"
     showgrid="false"
     inkscape:zoom="1.3580416"
     inkscape:cx="356.34487"
     inkscape:cy="309.0481"
     inkscape:window-x="26"
     inkscape:window-y="0"
     inkscape:window-maximized="1"
     inkscape:current-layer="layer1" />
  <g
     inkscape:groupmode="layer"
     id="layer1"
     inkscape:label="svg"
     style="opacity:0.7642857;display:inline">
    <path
       style="fill:#000000;stroke:#000000;stroke-width:0px;stroke-linecap:butt;stroke-linejoin:miter;stroke-opacity:1"
       d="m 405.40789,443.89572 c -8.32815,17.30144 -16.65629,97.42866 -24.98444,47.61186 -0.14061,-4.58996 -1.39657,-9.07056 3.29983,-23.33453 -7.2657,20.27926 -14.21471,43.4245 -20.27039,43.13351 -4.88861,-7.42276 -6.72042,-15.21277 -2.82843,-26.39865 -5.61993,6.09134 -10.5529,11.49571 -13.67073,15.08495 -2.66071,-5.43703 -4.79417,-13.6684 -4.94975,-22.86313 -3.29983,4.79277 -6.36396,8.95555 -9.66379,8.72099 -2.777,-8.17101 -5.78104,-16.34202 -6.12826,-24.51303 -2.82843,3.39029 -5.65685,7.04858 -8.48528,8.01387 -4.6672,-6.53281 -3.9549,-14.41049 -3.77124,-22.15601 -3.69191,2.82691 -7.42989,5.74597 -9.89949,6.12826 -1.41147,-6.91256 -1.5741,-13.2007 -0.47141,-18.85618 -3.54988,1.44292 -5.92618,2.89568 -8.24958,1.88562 -1.12521,-5.81618 -0.23773,-11.60295 0.2357,-17.44197 -1.88562,1.66761 -3.77123,3.97013 -5.65685,1.41421 -0.90535,-6.5903 1.3899,-12.38044 2.82843,-18.38477 -4.93076,3.77988 -6.59924,3.64501 -8.48528,3.77123 -2.38339,-4.24264 -0.71208,-8.48528 1.88561,-12.72792 -6.74516,1.24544 -10.51823,-0.48121 -8.48528,-8.01388 -5.97751,-0.93961 -5.25493,-5.22927 -6.59966,-8.48528 -1.62677,0.85102 -2.45661,-0.65045 -2.82843,0.47141 -8.51707,-14.77157 -14.78844,-23.92892 -22.15601,-35.82675 l 65.99663,6.59967 z"
       id="path3031"
       inkscape:connector-curvature="0"
       sodipodi:nodetypes="ccccccccccccccccccccccccc" />
    <path
       style="fill:#1a1a1a;fill-opacity:1"
       d="m 377.85441,405.66559 c 0,-0.43212 0.12571,-0.58925 0.4714,-0.58925 0.3457,0 0.47141,0.15713 0.47141,0.58925 0,0.43212 -0.12571,0.58926 -0.47141,0.58926 -0.34569,0 -0.4714,-0.15714 -0.4714,-0.58926 z"
       id="path3113"
       inkscape:connector-curvature="0" />
    <path
       style="fill:url(#linearGradient3053);fill-opacity:1;stroke:#000000;stroke-width:0px;stroke-linecap:butt;stroke-linejoin:miter;stroke-opacity:1"
       d="m 409.66667,264.33333 c 31.64134,22.75763 98.37503,20.42926 138,22.66667 18.11092,3.28891 18.32164,16.10117 20,20 l -2.33334,10.33333 C 547.65926,316.82523 547.51256,325.02413 500,310 l -92.66667,-31.33333 z"
       id="path3168"
       inkscape:connector-curvature="0"
       sodipodi:nodetypes="ccccccc" />
    <path
       style="fill:#803300;stroke:#000000;stroke-width:0px;stroke-linecap:butt;stroke-linejoin:miter;stroke-opacity:1"
       d="m 196.23847,327.04934 c -5.03176,0.38915 -10.06351,7.63107 -15.09527,13.62256 35.9857,-0.84951 48.49314,3.1524 54.85841,1.10453 21.27555,-8.46092 24.1086,-15.24525 35.71319,-22.82699 5.98538,-7.23966 -26.19934,-1.46701 -75.47633,8.0999 z"
       id="path3058"
       inkscape:connector-curvature="0"
       sodipodi:nodetypes="ccccc" />
    <path
       style="fill:url(#linearGradient3056);fill-opacity:1;stroke:#000000;stroke-width:0px;stroke-linecap:butt;stroke-linejoin:miter;stroke-opacity:1"
       d="m 159.42075,334.41289 c -2.34641,-0.61865 -9.20009,3.52038 5.15448,-14.72709 30.84142,1.2897 65.06251,-26.15885 108.24411,-30.19054 l -3.68177,28.71783 c -18.53806,-1.64859 -54.36751,11.53622 -109.71682,16.1998 z"
       id="path3040"
       inkscape:connector-curvature="0"
       sodipodi:nodetypes="ccccc" />
    <path
       style="fill:url(#linearGradient3164);fill-opacity:1;stroke:#000000;stroke-width:0px;stroke-linecap:butt;stroke-linejoin:miter;stroke-opacity:1"
       d="M 511.09763,313.37378 C 446.56004,289.73241 400.45932,343.04654 344.94281,360 c -41.71732,-0.12092 -75.93047,-14.24639 -106.29577,-18.27614 3.42941,-6.28497 -3.87092,-9.35103 10.96244,-19.05719 28.51848,-3.51691 5.79997,-13.71691 8,-20.66667 l -30.66667,10.66667 -4.66667,-9.33334 c 64.95669,-16.4714 119.25303,-58.22806 168,-48 28.55981,11.18028 35.61759,24.32249 70,36 36.85631,14.26889 42.3405,-2.69375 50.82149,22.04045 z"
       id="path3156"
       inkscape:connector-curvature="0"
       sodipodi:nodetypes="cccccccccc" />
    <path
       style="fill:url(#linearGradient3123);fill-opacity:1;stroke:#000000;stroke-width:0px;stroke-linecap:butt;stroke-linejoin:miter;stroke-opacity:1"
       d="m 458.33333,407 c -3.72577,27.95625 1.4067,95.77462 -15,66.66667 -5.27436,38.09041 -17.13872,20.30293 -16,-6.33334 -8.04731,37.03426 -14.72861,42.66362 -19.66666,13.66667 -12.89003,13.75991 -13.01319,-2.18564 -18,-22 -11.01015,19.56496 -13.59492,-4.54575 -16.33334,-14 -15.02884,18.26568 -14.19927,-6.16434 -18.66666,-16.33333 C 343.59684,448.06225 344.69721,420.29833 340,415 c -8.81726,5.91766 -6.4589,-6.79073 -8,-13 -5.62048,6.82074 -6.69354,-1.81974 -8,-9.66667 -3.50409,-1.62866 -8.51478,0.50918 -7,-13.66666 -2.65524,-2.19453 -9.08835,-2.20804 -7,-9.33334 -5.84599,-1.43601 -8.48216,-5.01189 -9,-10 -4,1.33334 -6.22222,-0.88889 -6.66667,-6.66666 -5.86614,-0.65729 -4.75854,-3.30709 -4.66666,-5.66667 -6.62479,0.10904 -5.94948,-2.91054 -6.66667,-5.33333 l -4.33333,-4 c -4.40376,0.28385 -5.61591,-2.22497 -5,-6.33334 -2.69478,0.45061 -5.97207,1.94972 -5.66667,-3 -5.51029,-0.35597 -6.05587,-3.19428 -5.33333,-6.66666 -5.28132,0.88137 -6.96569,-0.85324 -5.33334,-5 -4.35746,1.19126 -5.84801,-2.24938 -6,-7.33334 -3.43936,0.46587 -2.36861,-2.28995 -3.48815,-4.72385 19.0032,-1.93253 45.0987,-8.60033 66.98325,-13.41421 z"
       id="path3111"
       inkscape:connector-curvature="0"
       sodipodi:nodetypes="ccccccccccccccccccccccccc" />
    <path
       style="fill:url(#linearGradient3148);fill-opacity:1;stroke:#000000;stroke-width:0px;stroke-linecap:butt;stroke-linejoin:miter;stroke-opacity:1"
       d="m 453.49115,382.37743 c 3.13436,39.68666 1.00326,60.94417 0.70711,88.62405 -0.0765,-29.30605 0.47755,-58.73823 -2.59273,-87.44554 l -3.06413,0 c 1.82564,46.15356 -5.88736,66.55279 -9.66379,97.58074 3.67163,-32.25038 10.30951,-63.61089 8.24958,-97.58074 l -7.30677,0.4714 c -1.82092,32.87222 -11.87251,64.19848 -18.38478,95.93082 5.06004,-31.71574 15.20862,-64.06755 15.79205,-95.22371 l -9.66379,-4.00694 c -1.0661,33.59757 -15.49091,62.05717 -23.80593,92.86669 7.58476,-31.30972 21.75138,-63.9358 20.9775,-93.57379 l -5.18545,-2.35703 -31.5841,77.54604 28.99138,-82.73149 -6.12826,-4.94974 c -11.8759,22.07744 -28.23486,47.21902 -41.2479,69.29646 12.49222,-23.16015 26.63436,-48.22476 40.30509,-73.0677 l -8.24958,-5.89256 c -13.52214,23.57919 -32.96472,41.997 -48.79036,62.6968 14.7465,-20.76597 33.01115,-39.89941 45.49053,-62.9325 l -5.65685,-2.82843 -45.49054,45.96195 42.78343,-47.37616 -3.18545,-3.29983 c -15.35828,11.19553 -27.25822,21.69939 -39.59798,32.29121 9.20353,-8.92686 16.49545,-16.52391 39.59798,-35.11964 l -6.83537,-3.29983 -46.19764,33.23402 42.42641,-34.17683 -5.65686,-1.88562 c -15.63492,12.81975 -31.26983,19.8218 -46.90475,29.69849 14.83311,-10.07873 28.56124,-16.29001 44.54773,-30.40559 l -5.18545,-2.12132 -44.54773,19.09188 41.0122,-19.32759 -7.77818,-4.00693 -34.64823,12.72792 30.877,-13.90644 -7.30677,-4.94974 -24.98444,11.31371 24.27733,-12.49222 -7.54247,-1.41422 -19.79899,6.12826 16.73486,-7.30677 -4.71405,-4.71404 -17.44196,4.71404 12.25651,-4.94975 -5.89255,-3.77123 -25.22015,8.72098 24.7418,-10.8423 -7.53553,-3.77124 -33.46972,13.19933 31.3484,-13.67073 -2.59273,-4.24264 -36.53385,11.078 37.00526,-12.72792 7.30677,-5.18545 -51.14739,14.37784 54.44722,-16.49916 2.82843,-3.29983 -59.39697,14.37784 60.57548,-15.79206 z"
       id="path3125"
       inkscape:connector-curvature="0"
       sodipodi:nodetypes="cccccccccccccccccccccccccccccccccccccccccccccccccccccccccccccccc" />
    <path
       style="fill:#b3b3b3;fill-opacity:1"
       d="m 393.2,293.68764 c 0,-0.18334 0.675,-0.33334 1.5,-0.33334 0.825,0 1.5,0.15 1.5,0.33334 0,0.18333 -0.675,0.33333 -1.5,0.33333 -0.825,0 -1.5,-0.15 -1.5,-0.33333 z"
       id="path3035"
       inkscape:connector-curvature="0" />
    <path
       style="fill:#b3b3b3;stroke:#000000;stroke-width:0px;stroke-linecap:butt;stroke-linejoin:miter;stroke-opacity:1"
       d="m 452.66667,374.66667 c 1.91071,10.66667 5.90088,30.33333 5.33333,32 -1.99474,4.36104 -6.9874,3.22566 -11,-3.66667 -2.42007,8.14495 -5.21481,4.46901 -10.66667,-5 -8.58791,8.6262 -7.64763,9.08405 -9,-3.33333 -6.65129,7.07352 -9.81752,-0.66442 -13,-8.33334 -5.29562,2.57239 -10.7027,5.42343 -7.33333,-13.66666 -7.2266,8.24965 -14.57452,16.81996 -9.66667,-7 -15.42382,12.18184 -7.72733,-2.22468 -6.66666,-9 -6.57846,3.32817 -17.34731,12.18003 -5.33334,-9 -3.9613,1.1649 -9.21482,5.91404 -9,-2 -3.29198,0.91082 -7.34175,4.4739 -9,-0.33334 -4.06149,0.72816 -8.4442,1.77754 -7.33333,-2.66666 -8.77529,-0.91942 -5.79461,-2.90756 -5.33333,-4.66667 -3.11817,0.11817 -8.45781,2.45781 -6.66667,-2.33333 -7.66666,-0.55556 -10.44445,-3.33334 -8.33333,-8.33334 -9.74425,0.68135 -13.89162,-2.36855 -15.66667,-7 -4.65543,3.48315 -5.03679,0.55518 -6.33333,-1 -2.84064,-0.22442 -6.45696,2.26604 -7.66667,-3.66666 -11.55554,0.66666 -14.66668,-0.88889 -9.33333,-4.66667 -19.76831,5.95704 6.17875,-11.59669 14.33333,-20 l 107.33333,42.66667 z"
       id="path3071"
       inkscape:connector-curvature="0"
       sodipodi:nodetypes="ccccccccccccccccccccccc" />
    <path
       style="fill:url(#linearGradient3109);fill-opacity:1;stroke:#000000;stroke-width:0px;stroke-linecap:butt;stroke-linejoin:miter;stroke-opacity:1"
       d="m 395,271.11165 c 2.38206,7.53931 24.96237,21.34588 40,30.66667 3.37866,1.93422 3.11808,22.56253 8.66666,33.33333 1.99519,5.22222 -4.85875,5.77778 9.33334,38.66668 -2.25109,-1.97113 -3.8864,-4.55805 -8.66667,-4 -1.60503,-5.97488 -3.95165,-8.24178 -7.33333,-5.33335 2.50418,-4.94862 -1.11271,-3.77617 -2.66667,-4.66666 -2.79446,0.87503 -6.76554,4.69164 -11.33333,10.00001 3.98834,-12.36002 1.96176,-19.37343 -2,-24.66668 -3.60439,-6.44079 -9.07343,-11.3277 -18,-13.33333 -14.14908,-0.24332 -12.85761,-1.58954 -15.33334,-2.66667 -6.08458,-7.99669 -15.40064,-7.37608 -24,-8.66667 C 356.12442,302.86946 335.26223,305.27385 321,297.77832 c -0.46414,-2.70042 -0.38831,-5.49084 -6,-7.33334 68.36256,-29.05917 79.55166,-22.38583 80,-19.33333 z"
       id="path3030"
       inkscape:connector-curvature="0"
       sodipodi:nodetypes="ccccccccccccccc" />
    <path
       style="fill:#cccccc;fill-opacity:1"
       d="m 402.28333,348.12453 c 0.32084,-0.0838 0.84584,-0.0838 1.16667,0 0.32083,0.0838 0.0583,0.15244 -0.58333,0.15244 -0.64167,0 -0.90417,-0.0686 -0.58334,-0.15244 z"
       id="path3081"
       inkscape:connector-curvature="0" />
    <path
       sodipodi:type="arc"
       style="fill:#000000;fill-opacity:1"
       id="path3166"
       sodipodi:cx="553.42889"
       sodipodi:cy="298.46744"
       sodipodi:rx="2.3570225"
       sodipodi:ry="2.5927248"
       d="m 555.78592,298.46744 a 2.3570225,2.5927248 0 1 1 -4.71405,0 2.3570225,2.5927248 0 1 1 4.71405,0 z" />
    <path
       style="fill:url(#linearGradient3045);fill-opacity:1;stroke:#000000;stroke-width:0px;stroke-linecap:butt;stroke-linejoin:miter;stroke-opacity:1"
       d="m 564.03551,297.99602 c 7.62674,7.12116 15.66541,14.30394 24.51304,15.32064 2.76497,2.33587 0.75566,3.08031 0,4.24264 -8.56385,-1.94001 -16.6563,-1.15985 -25.22015,0 3.4844,-6.92718 2.13887,-13.25062 0.70711,-19.56328 z"
       id="path3178"
       inkscape:connector-curvature="0"
       sodipodi:nodetypes="ccccc" />
    <path
       style="fill:#333333;stroke:#000000;stroke-width:0px;stroke-linecap:butt;stroke-linejoin:miter;stroke-opacity:1"
       d="m 425.2357,272.27614 c 25.38019,11.22523 64.10746,12.50739 100.7643,14.05719 -0.44528,9.13404 0.19519,12.37593 2.39499,15.08661 2.62977,3.24049 -3.69565,0.69543 -7.06166,-12.08661 -2.99088,-3.84314 -3.75821,-2.73973 -3.66667,2.66667 -56.71435,0.0641 -66.20874,-3.83497 -92.43096,-19.72386 z"
       id="path3015"
       inkscape:connector-curvature="0"
       sodipodi:nodetypes="ccsccc" />
    <path
       style="fill:#333333;stroke:#000000;stroke-width:0px;stroke-linecap:butt;stroke-linejoin:miter;stroke-opacity:1"
       d="m 534.75369,286.14187 c 3.09119,4.69601 7.35705,6.98594 12.31126,10.43994 0.87138,-1.40708 2.05624,-1.32216 2.35702,-3.29983 -5.79976,-1.7056 -8.15795,-3.45334 -10.8423,-7.02818 z"
       id="path3027"
       inkscape:connector-curvature="0"
       sodipodi:nodetypes="ccccc" />
  </g>
</svg>
